<svg width="608" height="578" viewBox="0 0 608 578" fill="none" xmlns="http://www.w3.org/2000/svg">
<g filter="url(#filter0_d_3_207)">
<path d="M205.504 43.2302C207.272 42.1588 209.174 41.3314 211.158 40.7702L212.314 35.1245L221.75 34.9523L223.112 40.5611C225.112 41.06 227.038 41.8252 228.839 42.8366L233.606 39.6755L240.403 46.3175L237.448 51.2375C238.508 53.0211 239.326 54.9407 239.88 56.9447L245.462 58.1132L245.632 67.658L240.087 69.0233C239.596 71.0472 238.839 72.9956 237.837 74.8166L240.963 79.6505L234.396 86.5139L229.532 83.525C227.769 84.597 225.871 85.4244 223.89 85.985L222.674 91.6307L213.238 91.8029L211.876 86.1941C209.88 85.6951 207.958 84.9299 206.161 83.9186L201.382 87.0797L194.56 80.45L197.515 75.53C196.456 73.7417 195.638 71.8182 195.083 69.8105L189.501 68.5805L189.331 59.0357L194.876 57.6581C195.369 55.6348 196.126 53.6867 197.126 51.8648L194.001 47.0309L200.64 40.2413L205.504 43.2302ZM210.538 55.9484C209.146 57.4055 208.212 59.2474 207.855 61.2413C207.498 63.2352 207.733 65.2914 208.531 67.1501C209.329 69.0087 210.654 70.5862 212.339 71.6832C214.023 72.7802 215.991 73.3473 217.994 73.3129C219.997 73.2785 221.945 72.6441 223.592 71.4899C225.238 70.3358 226.509 68.7137 227.245 66.8287C227.98 64.9437 228.146 62.8806 227.722 60.9001C227.298 58.9197 226.303 57.1109 224.863 55.7024C223.905 54.7611 222.772 54.0205 221.53 53.5232C220.288 53.0259 218.961 52.7817 217.626 52.8045C216.29 52.8274 214.972 53.1169 213.748 53.6564C212.523 54.1959 211.416 54.9748 210.49 55.9484H210.538Z" fill="#E0E0E0"/>
<path d="M207.693 360.004C208.711 359.383 209.807 358.904 210.952 358.578L211.62 355.318L217.068 355.22L217.846 358.455C219.002 358.737 220.114 359.176 221.154 359.758L223.902 357.938L227.818 361.763L226.176 364.58C226.79 365.61 227.264 366.719 227.587 367.876L230.809 368.553L230.906 374.063L227.708 374.851C227.429 376.019 226.995 377.144 226.419 378.196L228.219 380.976L224.437 384.936L221.628 383.214C220.608 383.834 219.512 384.318 218.369 384.654L217.664 387.95L212.216 388.048L211.438 384.814C210.283 384.531 209.17 384.092 208.131 383.51L205.382 385.33L201.467 381.505L203.169 378.664C202.557 377.631 202.078 376.523 201.747 375.367L198.536 374.691L198.439 369.18L201.637 368.393C201.916 367.224 202.35 366.099 202.926 365.047L201.126 362.268L204.908 358.307L207.717 360.029L207.693 360.004ZM210.599 367.384C209.794 368.226 209.253 369.29 209.046 370.442C208.839 371.594 208.974 372.782 209.435 373.856C209.896 374.93 210.662 375.842 211.635 376.476C212.609 377.109 213.746 377.436 214.904 377.416C216.061 377.395 217.187 377.027 218.137 376.359C219.088 375.691 219.822 374.753 220.245 373.663C220.668 372.573 220.762 371.381 220.515 370.237C220.267 369.093 219.69 368.049 218.856 367.237C218.307 366.695 217.659 366.267 216.947 365.979C216.235 365.69 215.474 365.546 214.707 365.555C213.94 365.565 213.183 365.727 212.478 366.032C211.773 366.337 211.135 366.78 210.599 367.335V367.384Z" fill="#E0E0E0"/>
<path d="M89.1085 73.5989C89.8042 73.1733 90.5524 72.8425 91.3337 72.6149L91.7958 70.3886H95.5046L96.064 72.5288C96.852 72.7313 97.6119 73.033 98.3257 73.4267L100.198 72.1967L102.874 74.8043L101.658 76.7477C102.078 77.4514 102.405 78.2083 102.63 78.9986L104.831 79.466V83.156L102.643 83.6972C102.452 84.4956 102.158 85.265 101.767 85.985L102.983 87.8792L100.405 90.5852L98.4838 89.3552C97.7881 89.7808 97.0399 90.1116 96.2585 90.3392L95.7965 92.5655H92.1485L91.6134 90.3515C90.8241 90.1589 90.0635 89.8611 89.3517 89.4659L87.479 90.6959L84.8038 88.076L86.0198 86.1449C85.5991 85.4411 85.272 84.6843 85.047 83.894L82.8461 83.4266L82.7853 79.7366L84.9619 79.1954C85.1621 78.3983 85.4603 77.6297 85.8496 76.9076L84.6336 75.0134L87.2115 72.3074L89.1328 73.5374L89.1085 73.5989ZM91.0905 78.605C90.5428 79.179 90.1756 79.9044 90.0353 80.6894C89.8951 81.4745 89.9881 82.284 90.3026 83.0156C90.6171 83.7472 91.139 84.3681 91.8022 84.7997C92.4655 85.2314 93.2404 85.4544 94.029 85.4406C94.8176 85.4269 95.5844 85.177 96.2326 84.7225C96.8808 84.2679 97.3812 83.6292 97.6706 82.8871C97.9599 82.145 98.0253 81.3327 97.8584 80.553C97.6915 79.7733 97.2998 79.0612 96.7328 78.5066C96.356 78.1381 95.9112 77.8483 95.4237 77.6538C94.9361 77.4593 94.4155 77.3639 93.8915 77.373C93.3675 77.3822 92.8504 77.4957 92.3698 77.7071C91.8892 77.9185 91.4545 78.2236 91.0905 78.605Z" fill="#E0E0E0"/>
<path d="M270.633 65.69C272.005 64.8514 273.481 64.202 275.023 63.7589L275.923 59.3678L283.219 59.2325L284.276 63.599C285.836 63.9846 287.337 64.5803 288.739 65.3702L292.387 62.9102L297.774 68.15L295.488 71.9384C296.32 73.3288 296.962 74.8266 297.397 76.391L301.75 77.3012L301.872 84.6812L297.567 85.7513C297.176 87.3366 296.579 88.8627 295.792 90.29L298.224 94.0538L293.129 99.392L289.335 97.0673C287.962 97.9033 286.486 98.5526 284.945 98.9984L284.033 103.389L276.737 103.525L275.679 99.1583C274.104 98.7818 272.586 98.1901 271.168 97.3994L267.52 99.8594L262.23 94.7057L264.529 90.8681C263.701 89.4754 263.059 87.9783 262.62 86.4155L258.278 85.5053L258.145 78.1253L262.461 77.0552C262.843 75.4819 263.432 73.9677 264.212 72.5534L261.78 68.7896L266.876 63.4514L270.633 65.69ZM274.548 75.53C273.467 76.665 272.742 78.099 272.466 79.6507C272.19 81.2024 272.375 82.802 272.998 84.2472C273.621 85.6924 274.654 86.9183 275.965 87.7698C277.277 88.6213 278.809 89.0602 280.367 89.031C281.926 89.0017 283.441 88.5056 284.72 87.6055C286 86.7053 286.987 85.4415 287.556 83.9739C288.126 82.5063 288.252 80.9009 287.919 79.3606C287.587 77.8204 286.81 76.4145 285.687 75.3209C284.936 74.5999 284.053 74.0358 283.086 73.6609C282.12 73.2861 281.089 73.1078 280.055 73.1364C279.02 73.1649 278.001 73.3998 277.056 73.8274C276.111 74.255 275.259 74.867 274.548 75.6284V75.53Z" fill="#EBEBEB"/>
<path d="M464.767 249.083C466.526 248.011 468.42 247.184 470.397 246.623L471.613 240.977L481.037 240.805L482.399 246.414C484.401 246.907 486.328 247.673 488.127 248.689L492.881 245.528L499.667 252.158L496.724 257.078C497.777 258.865 498.594 260.784 499.156 262.785L504.737 264.015L504.908 273.548L499.363 274.925C498.875 276.946 498.118 278.891 497.113 280.706L500.238 285.528L493.696 292.317L488.832 289.329C487.068 290.399 485.17 291.226 483.19 291.789L481.974 297.434L472.55 297.594L471.188 292.01C469.191 291.511 467.27 290.746 465.473 289.734L460.706 292.896L453.921 286.266L456.876 281.346C455.816 279.567 454.998 277.651 454.444 275.651L448.862 274.421L448.704 264.95L454.237 263.572C454.73 261.549 455.486 259.601 456.486 257.779L453.361 252.97L459.916 246.106L464.78 249.095L464.767 249.083ZM469.789 261.789C468.401 263.246 467.471 265.086 467.116 267.078C466.762 269.069 466.999 271.123 467.798 272.978C468.597 274.833 469.921 276.407 471.604 277.501C473.287 278.595 475.253 279.159 477.254 279.123C479.254 279.087 481.199 278.452 482.842 277.298C484.486 276.144 485.754 274.524 486.487 272.641C487.22 270.758 487.384 268.697 486.96 266.72C486.535 264.742 485.541 262.936 484.102 261.531C483.146 260.595 482.018 259.859 480.781 259.366C479.543 258.872 478.222 258.63 476.893 258.654C475.563 258.678 474.251 258.968 473.032 259.505C471.813 260.043 470.711 260.819 469.789 261.789Z" fill="#E0E0E0"/>
<path d="M531.392 63.5006C531.399 59.5277 530.5 55.6066 528.765 52.0424C527.03 48.4782 524.505 45.3669 521.388 42.9504C518.27 40.534 514.643 38.8776 510.79 38.11C506.936 37.3424 502.959 37.4844 499.169 38.5248C495.378 39.5653 491.876 41.4762 488.934 44.1089C485.993 46.7416 483.691 50.0252 482.209 53.7043C480.726 57.3833 480.103 61.3587 480.387 65.3213C480.671 69.2838 481.855 73.1266 483.846 76.5509L483.919 76.6493C484.892 78.3221 486.12 79.5152 487.361 81.2618L502.208 101.139C502.639 101.703 503.191 102.16 503.824 102.474C504.456 102.788 505.151 102.952 505.856 102.952C506.561 102.952 507.256 102.788 507.888 102.474C508.521 102.16 509.073 101.703 509.504 101.139L524.096 81.5939C525.422 80.0249 526.66 78.3824 527.805 76.6739L527.866 76.6001C530.181 72.6326 531.399 68.108 531.392 63.5006ZM505.856 74.7428C503.634 74.7404 501.463 74.0717 499.617 72.8214C497.771 71.5711 496.333 69.7953 495.484 67.7183C494.636 65.6414 494.415 63.3566 494.85 61.1528C495.285 58.949 496.356 56.9251 497.928 55.3368C499.499 53.7486 501.501 52.6674 503.681 52.2299C505.86 51.7923 508.118 52.0181 510.171 52.8787C512.223 53.7393 513.977 55.196 515.211 57.0647C516.445 58.9334 517.104 61.1303 517.104 63.3776C517.104 64.8711 516.813 66.35 516.248 67.7297C515.682 69.1094 514.853 70.3628 513.809 71.4183C512.764 72.4739 511.524 73.3108 510.16 73.8812C508.795 74.4516 507.333 74.7444 505.856 74.7428Z" fill="#E0E0E0"/>
<path d="M81.8003 435.243C84.3881 433.424 86.3908 430.875 87.5602 427.915C88.7296 424.954 89.0143 421.712 88.3789 418.589C86.713 409.746 78.6509 403.829 70.5158 405.416C62.3808 407.003 57.0182 415.44 58.6841 424.296C59.2282 427.464 60.689 430.397 62.8817 432.725C65.0745 435.052 67.9005 436.669 71.0022 437.371C48.8467 445.342 54.72 470.237 54.72 470.237L108.747 459.856C108.747 459.856 105.099 434.247 81.8003 435.243Z" fill="#EBEBEB"/>
<path d="M147.258 541.368L136.192 538.588C136.192 538.588 133.894 548.035 124.141 545.784C122.256 545.385 120.54 544.402 119.232 542.972C117.925 541.541 117.09 539.733 116.845 537.801C116.615 536.182 116.768 534.531 117.29 532.983C117.812 531.436 118.689 530.035 119.849 528.896C122.5 526.214 127.34 524.382 134.441 527.592L140.63 502.217L129.626 499.474L125.978 514.345C125.978 514.345 109.574 514.529 105.391 531.725C101.378 548.182 115.034 555.636 121.284 557.186C126.075 558.379 142.625 561.269 147.258 541.368Z" fill="#EBEBEB"/>
<path d="M130.759 494.22L141.916 497.001L144.485 486.455L133.327 483.674L130.759 494.22Z" fill="#EBEBEB"/>
<path d="M70.528 270.116H95.9302L93.6928 281.641H47.9347L49.7466 272.478L77.289 250.645C84.0986 245.135 86.1779 241.912 86.1779 237.89C86.1779 233.868 83.1501 231.162 77.289 231.162C74.8151 231.199 72.3803 231.792 70.1599 232.895C67.9394 233.999 65.9887 235.587 64.448 237.546L55.0362 230.645C59.9002 223.917 68.935 219.465 79.3562 219.465C92.1363 219.465 100.502 226.365 100.502 235.885C100.502 243.13 97.2314 249.243 86.6035 257.545L70.528 270.116Z" fill="#263238"/>
<path d="M156.451 268.812H146.528L144.023 281.641H130.38L132.97 268.812H100.417L102.229 259.292L137.809 220.51H153.082L119.934 257.275H135.815L138.065 245.836H151.1L148.851 257.275H158.785L156.451 268.812Z" fill="#263238"/>
<path d="M196.335 208.112H208.945L164.573 290.374H152L196.335 208.112Z" fill="#263238"/>
<path d="M253.925 220.51L252.113 229.686L219.828 281.641H204.288L235.272 232.035H215.682L213.688 241.998H201.26L205.504 220.51H253.925Z" fill="#263238"/>
<path d="M42.2803 329.869L45.8189 323.08C48.9727 325.118 52.6314 326.214 56.3738 326.241C59.8272 326.241 61.8214 325.146 61.8214 323.4C61.8214 319.082 46.4026 321.469 46.4026 311.383C46.4026 304.458 52.2515 299.919 61.639 299.919C65.6205 299.785 69.5643 300.737 73.0573 302.674L69.7984 309.414C67.1815 307.785 64.1646 306.933 61.0918 306.954C57.3709 306.954 55.3766 308.332 55.3766 310.079C55.3766 314.482 70.7955 311.961 70.7955 321.862C70.7955 328.738 64.8128 333.276 55.5226 333.276C50.0749 333.301 45.1379 331.837 42.2803 329.869Z" fill="#263238"/>
<path d="M86.7859 307.582L85.7523 312.994H99.8458L98.496 319.771H84.3904L83.2473 325.651H99.8944L98.4352 332.661H72.96L79.3562 300.62H104.199L102.788 307.643L86.7859 307.582Z" fill="#263238"/>
<path d="M127.352 323.031L132.751 332.661H123.363L118.645 324.138H114.122L112.444 332.661H103.469L109.805 300.62H123.363C131.474 300.62 136.143 304.433 136.143 310.854C136.207 313.579 135.38 316.25 133.79 318.451C132.201 320.653 129.938 322.263 127.352 323.031ZM122.099 307.717H117.38L115.52 317.114H120.87C124.822 317.114 127.133 315.195 127.133 311.665C127.084 308.959 125.175 307.717 122.099 307.717Z" fill="#263238"/>
<path d="M175.481 300.62L155.648 332.661H146.808L139.536 300.62H148.741L153.277 321.53L166.239 300.62H175.481Z" fill="#263238"/>
<path d="M177.378 300.62H186.364L179.968 332.661H170.994L177.378 300.62Z" fill="#263238"/>
<path d="M187.763 319.181C187.763 308.037 195.873 299.919 207.656 299.919C213.505 299.919 218.272 302.084 220.534 305.971L214.016 311.198C213.288 310.005 212.255 309.033 211.027 308.383C209.799 307.734 208.42 307.432 207.036 307.508C200.871 307.508 196.785 312.317 196.785 318.639C196.785 322.957 199.692 325.847 204.543 325.847C206.025 325.854 207.489 325.527 208.829 324.888C210.169 324.25 211.351 323.317 212.289 322.157L217.591 327.422C214.016 331.788 209.347 333.387 203.68 333.387C193.976 333.301 187.763 327.569 187.763 319.181Z" fill="#263238"/>
<path d="M233.63 307.582L232.584 312.994H246.678L245.364 319.771H231.222L230.092 325.651H246.726L245.279 332.661H219.853L226.176 300.62H251.019L249.62 307.643L233.63 307.582Z" fill="#263238"/>
<path d="M76.7904 202.417H59.0733C59.0733 177.472 69.0566 151.987 86.4576 132.43C104.771 111.877 128.543 100.561 153.338 100.561C204.008 100.561 239.406 137.977 239.406 191.581H221.725C221.725 147.879 194.256 118.519 153.374 118.519C113.295 118.482 76.7904 158.481 76.7904 202.417Z" fill="#5ED8FF"/>
<path d="M86.5062 197.435C89.3395 197.435 91.6378 197.718 91.6256 197.977C91.6134 198.235 89.3274 198.432 86.5062 198.432C83.6851 198.432 81.3747 198.198 81.3747 197.89C81.3747 197.583 83.6851 197.386 86.5062 197.435Z" fill="#263238"/>
<path d="M98.7392 158.149C101.171 159.724 102.813 161.335 102.545 161.765C102.278 162.196 100.113 161.322 97.6813 159.834C95.2493 158.346 93.632 156.71 93.8874 156.218C94.1427 155.726 96.368 156.587 98.7392 158.149Z" fill="#263238"/>
<path d="M129.382 131.077C130.538 133.697 131.109 135.997 130.598 136.194C130.088 136.39 128.787 134.484 127.546 131.913C126.306 129.343 125.734 126.993 126.33 126.796C126.926 126.6 128.239 128.42 129.382 131.077Z" fill="#263238"/>
<path d="M169.754 127.854C169.048 130.634 168.088 132.774 167.613 132.676C167.139 132.577 167.236 130.216 167.844 127.399C168.452 124.582 169.401 122.479 169.985 122.59C170.568 122.7 170.459 125.087 169.754 127.854Z" fill="#263238"/>
<path d="M202.732 151.298C200.372 152.872 198.244 153.832 197.965 153.438C197.685 153.045 199.327 151.347 201.613 149.662C203.899 147.977 206.039 147.03 206.38 147.522C206.72 148.014 205.091 149.711 202.732 151.298Z" fill="#263238"/>
<path d="M213.59 189.92C210.769 189.92 208.471 189.699 208.471 189.453C208.471 189.207 210.757 188.961 213.59 188.924C216.424 188.887 218.71 189.096 218.722 189.391C218.734 189.686 216.448 189.92 213.59 189.92Z" fill="#263238"/>
<path d="M148.534 195.258C147.652 195.264 146.794 194.965 146.102 194.41L116.323 171.039C115.497 170.387 114.961 169.43 114.834 168.378C114.706 167.326 114.997 166.266 115.642 165.431C116.287 164.596 117.233 164.054 118.273 163.925C119.313 163.796 120.361 164.089 121.187 164.742L148.352 186.046L185.866 151.2C186.632 150.48 187.649 150.098 188.693 150.137C189.737 150.177 190.724 150.634 191.435 151.409C192.146 152.183 192.524 153.212 192.485 154.269C192.446 155.325 191.994 156.323 191.228 157.042L151.258 194.188C150.518 194.883 149.544 195.265 148.534 195.258Z" fill="#5ED8FF"/>
<path d="M168.732 74.2139H134.587C134.056 74.2139 133.626 74.6489 133.626 75.1856V87.6947C133.626 88.2314 134.056 88.6664 134.587 88.6664H168.732C169.263 88.6664 169.693 88.2314 169.693 87.6947V75.1856C169.693 74.6489 169.263 74.2139 168.732 74.2139Z" fill="#5ED8FF"/>
<path d="M160.974 81.4463H142.333V98.5433H160.974V81.4463Z" fill="#5ED8FF"/>
<path d="M74.7115 118.444L60.7086 135.986C60.1643 136.668 60.2695 137.667 60.9436 138.217L70.5179 146.037C71.1919 146.588 72.1795 146.481 72.7238 145.799L86.7267 128.258C87.2709 127.576 87.1657 126.577 86.4917 126.027L76.9174 118.207C76.2434 117.656 75.2558 117.763 74.7115 118.444Z" fill="#5ED8FF"/>
<path d="M168.732 88.6664C168.732 88.8755 161.084 89.0354 151.708 89.0354C142.333 89.0354 134.684 88.8755 134.684 88.6664C134.684 88.4573 142.321 88.2974 151.708 88.2974C161.096 88.2974 168.732 88.4696 168.732 88.6664Z" fill="#263238"/>
<path d="M74.3949 142.786C74.2003 143.008 71.6224 141.015 68.4365 138.592C65.2506 136.169 62.6605 134.201 62.8186 133.955C62.9766 133.709 65.8342 135.308 69.0566 137.756C72.279 140.203 74.5773 142.577 74.3949 142.786Z" fill="#263238"/>
<path d="M77.3619 138.371C77.1674 138.592 74.5895 136.6 71.4035 134.176C68.2176 131.753 65.6154 129.785 65.7735 129.539C65.9315 129.293 68.8013 130.892 72.0237 133.352C75.2461 135.812 77.5443 138.162 77.3619 138.371Z" fill="#263238"/>
<path d="M80.9978 134.668C80.8154 134.89 78.2375 132.897 75.0515 130.474C71.8656 128.051 69.312 126.083 69.4215 125.837C69.5309 125.591 72.4493 127.19 75.6595 129.65C78.8698 132.11 81.1923 134.459 80.9978 134.668Z" fill="#263238"/>
<path d="M84.5242 130.253C84.3418 130.474 81.7517 128.482 78.5658 126.058C75.3798 123.635 72.7898 121.667 72.96 121.421C73.1302 121.175 75.9878 122.774 79.1981 125.234C82.4083 127.694 84.7066 130.044 84.5242 130.253Z" fill="#263238"/>
<path d="M237.372 123.989L222.299 107.379C221.713 106.734 220.721 106.691 220.083 107.283L211.017 115.701C210.379 116.294 210.336 117.297 210.922 117.943L225.995 134.552C226.581 135.198 227.573 135.241 228.211 134.648L237.277 126.231C237.915 125.638 237.958 124.634 237.372 123.989Z" fill="#5ED8FF"/>
<path d="M213.615 120.081C213.432 119.859 215.755 117.621 218.6 114.742C221.446 111.864 223.744 109.613 223.963 109.822C224.182 110.032 222.2 112.651 219.318 115.505C216.436 118.359 213.785 120.29 213.615 120.081Z" fill="#263238"/>
<path d="M217.494 123.697C217.299 123.475 219.634 121.237 222.467 118.359C225.3 115.48 227.623 113.23 227.842 113.439C228.061 113.648 226.067 116.268 223.197 119.121C220.327 121.975 217.664 123.906 217.494 123.697Z" fill="#263238"/>
<path d="M220.57 127.891C220.376 127.67 222.71 125.431 225.544 122.553C228.377 119.675 230.7 117.424 230.918 117.633C231.137 117.842 229.143 120.45 226.261 123.303C223.379 126.157 220.74 128.1 220.57 127.891Z" fill="#263238"/>
<path d="M224.364 132.11C224.17 131.889 226.504 129.65 229.338 126.772C232.171 123.894 234.493 121.643 234.712 121.852C234.931 122.061 232.937 124.681 230.055 127.534C227.173 130.388 224.534 132.282 224.364 132.11Z" fill="#263238"/>
<path d="M138.417 88.6541C138.138 88.6541 137.907 85.4561 137.907 81.5324C137.907 77.6087 138.138 74.3984 138.417 74.3984C138.697 74.3984 138.94 77.5964 138.94 81.5324C138.94 85.4684 138.709 88.6541 138.417 88.6541Z" fill="#263238"/>
<path d="M145.105 88.6541C144.826 88.6541 144.595 85.4561 144.595 81.5324C144.595 77.6087 144.826 74.3984 145.105 74.3984C145.385 74.3984 145.616 77.5964 145.616 81.5324C145.616 85.4684 145.385 88.6541 145.105 88.6541Z" fill="#263238"/>
<path d="M151.781 88.6541C151.501 88.6541 151.27 85.4561 151.27 81.5324C151.27 77.6087 151.501 74.3984 151.781 74.3984C152.061 74.3984 152.292 77.5964 152.292 81.5324C152.292 85.4684 152.073 88.6541 151.781 88.6541Z" fill="#263238"/>
<path d="M158.469 88.6541C158.177 88.6541 157.958 85.4561 157.958 81.5324C157.958 77.6087 158.177 74.3984 158.469 74.3984C158.761 74.3984 158.98 77.5964 158.98 81.5324C158.98 85.4684 158.749 88.6541 158.469 88.6541Z" fill="#263238"/>
<path d="M165.145 88.6541C164.865 88.6541 164.634 85.4561 164.634 81.5324C164.634 77.6087 164.865 74.3984 165.145 74.3984C165.425 74.3984 165.656 77.5964 165.656 81.5324C165.656 85.4684 165.376 88.6541 165.145 88.6541Z" fill="#263238"/>
<path d="M155.762 196.288C159.248 192.762 159.248 187.046 155.762 183.52C152.277 179.994 146.625 179.994 143.14 183.52C139.654 187.046 139.654 192.762 143.14 196.288C146.625 199.813 152.277 199.814 155.762 196.288Z" fill="#5ED8FF"/>
<path d="M158.372 189.92C158.287 189.92 158.299 189.121 157.922 187.755C157.381 185.85 156.231 184.18 154.651 183.007C153.385 182.056 151.882 181.48 150.31 181.342C148.739 181.204 147.161 181.511 145.751 182.228C144.342 182.945 143.158 184.044 142.33 185.402C141.503 186.76 141.064 188.325 141.064 189.92C141.064 191.515 141.503 193.08 142.33 194.438C143.158 195.796 144.342 196.895 145.751 197.612C147.161 198.329 148.739 198.636 150.31 198.498C151.882 198.36 153.385 197.784 154.651 196.833C156.228 195.657 157.378 193.988 157.922 192.085C158.299 190.719 158.287 189.92 158.372 189.92C158.457 189.92 158.372 190.117 158.372 190.498C158.391 191.061 158.334 191.624 158.202 192.171C157.765 194.224 156.629 196.057 154.991 197.349C153.768 198.321 152.321 198.963 150.786 199.217C149.251 199.471 147.677 199.328 146.212 198.801C144.397 198.15 142.827 196.947 141.716 195.357C140.605 193.767 140.009 191.867 140.009 189.92C140.009 187.973 140.605 186.074 141.716 184.483C142.827 182.893 144.397 181.69 146.212 181.039C147.677 180.514 149.249 180.371 150.784 180.622C152.318 180.874 153.765 181.512 154.991 182.479C156.628 183.776 157.764 185.613 158.202 187.669C158.334 188.216 158.391 188.779 158.372 189.342C158.433 189.699 158.408 189.92 158.372 189.92Z" fill="#263238"/>
<path d="M463.624 220.842L478.873 218.382C488.867 226.539 501.517 230.619 514.335 229.821C527.152 229.022 539.211 223.402 548.14 214.066C557.069 204.73 562.223 192.354 562.588 179.369C562.953 166.384 558.503 153.731 550.113 143.897C541.723 134.063 529.999 127.759 517.247 126.225C504.495 124.691 491.637 128.037 481.2 135.607C470.764 143.176 463.504 154.42 460.848 167.129C458.192 179.838 460.331 193.092 466.847 204.286L463.624 220.842Z" fill="white"/>
<path d="M463.624 220.842C463.624 220.842 463.624 220.498 463.795 219.797L464.378 216.648C464.901 213.819 465.679 209.674 466.689 204.262C466.691 204.244 466.698 204.227 466.707 204.212C466.717 204.197 466.73 204.185 466.745 204.176C466.76 204.166 466.777 204.16 466.795 204.158C466.812 204.156 466.83 204.158 466.847 204.163C466.858 204.157 466.87 204.154 466.883 204.154C466.896 204.154 466.909 204.157 466.92 204.163L466.701 204.336C462.349 196.906 459.889 188.5 459.539 179.871C459.431 177.186 459.532 174.496 459.843 171.827C460.204 168.97 460.781 166.145 461.569 163.377C464.441 153.342 470.226 144.41 478.174 137.739C486.122 131.068 495.868 126.964 506.148 125.96C514.214 125.19 522.346 126.356 529.882 129.363C537.419 132.37 544.148 137.134 549.523 143.266L551.59 145.726C552.234 146.587 552.806 147.485 553.438 148.346C554.639 150.096 555.731 151.92 556.709 153.807C557.244 154.717 557.585 155.726 558.035 156.673C558.484 157.62 558.947 158.567 559.251 159.576C559.971 161.528 560.568 163.525 561.038 165.554C562.909 173.438 562.971 181.651 561.22 189.563C558.875 199.852 553.499 209.18 545.803 216.313C538.106 223.446 528.451 228.049 518.113 229.514C515.273 229.904 512.407 230.072 509.54 230.018C506.879 229.89 504.228 229.603 501.6 229.157C493.234 227.581 485.391 223.911 478.788 218.481H478.897L467.491 220.215L464.585 220.645L463.624 220.781L464.634 220.596L467.564 220.104L478.849 218.21H478.958C485.554 223.551 493.36 227.148 501.673 228.677C504.28 229.117 506.912 229.392 509.553 229.501C512.399 229.548 515.245 229.371 518.065 228.973C528.278 227.478 537.807 222.896 545.401 215.829C552.996 208.761 558.302 199.537 560.625 189.367C562.342 181.545 562.272 173.43 560.418 165.64C559.942 163.639 559.353 161.668 558.655 159.736C558.351 158.74 557.84 157.829 557.439 156.87C557.037 155.911 556.648 154.939 556.125 154.041C555.162 152.177 554.082 150.377 552.891 148.654C552.283 147.793 551.675 146.907 551.067 146.058L549.024 143.598C543.715 137.54 537.07 132.832 529.627 129.856C522.185 126.879 514.153 125.717 506.184 126.464C499.129 127.169 492.296 129.347 486.115 132.859C479.934 136.371 474.541 141.142 470.276 146.87C466.559 151.881 463.781 157.538 462.08 163.561C461.294 166.301 460.713 169.097 460.341 171.925C460.019 174.573 459.905 177.242 460.001 179.908C460.298 188.476 462.683 196.838 466.944 204.249C466.967 204.275 466.98 204.308 466.98 204.342C466.98 204.376 466.967 204.409 466.944 204.434C466.92 204.454 466.89 204.465 466.859 204.465C466.828 204.465 466.798 204.454 466.774 204.434L466.993 204.36C465.923 209.711 465.096 213.819 464.561 216.66C464.281 218.05 464.062 219.12 463.916 219.834C463.77 220.547 463.624 220.842 463.624 220.842Z" fill="#263238"/>
<path d="M526.723 179.44C526.72 178.396 527.024 177.374 527.597 176.504C528.169 175.635 528.984 174.956 529.937 174.555C530.891 174.155 531.941 174.049 532.954 174.252C533.967 174.455 534.898 174.958 535.628 175.697C536.358 176.436 536.855 177.377 537.056 178.402C537.257 179.426 537.153 180.488 536.756 181.453C536.36 182.418 535.69 183.242 534.83 183.821C533.97 184.399 532.96 184.707 531.927 184.705C530.548 184.702 529.226 184.146 528.251 183.159C527.275 182.173 526.726 180.836 526.723 179.44Z" fill="#263238"/>
<path d="M505.856 179.44C505.854 178.396 506.158 177.375 506.729 176.505C507.301 175.636 508.115 174.958 509.068 174.557C510.021 174.155 511.07 174.049 512.083 174.251C513.096 174.453 514.026 174.955 514.757 175.693C515.488 176.43 515.986 177.37 516.188 178.394C516.39 179.418 516.288 180.48 515.893 181.445C515.499 182.409 514.83 183.234 513.972 183.815C513.114 184.395 512.105 184.705 511.073 184.705C509.691 184.705 508.366 184.151 507.388 183.164C506.41 182.177 505.859 180.838 505.856 179.44Z" fill="#263238"/>
<path d="M485.05 182.073C484.534 181.169 484.295 180.131 484.362 179.089C484.43 178.048 484.801 177.05 485.429 176.222C486.057 175.394 486.914 174.773 487.891 174.437C488.868 174.102 489.921 174.067 490.918 174.337C491.914 174.607 492.81 175.17 493.49 175.955C494.17 176.739 494.605 177.71 494.74 178.745C494.875 179.78 494.703 180.832 494.246 181.768C493.79 182.704 493.07 183.482 492.176 184.004C490.977 184.7 489.554 184.888 488.219 184.526C486.884 184.164 485.744 183.282 485.05 182.073Z" fill="#263238"/>
<path d="M124.389 358.871C121.191 357.333 115.804 354.123 112.472 352.868C109.179 351.443 105.504 351.192 102.051 352.155C100.093 352.819 98.1357 354.406 98.1235 356.497L111.196 366.251L124.389 362.733V358.871Z" fill="#FF9A6C"/>
<path d="M110.089 358.736C110.089 358.736 86.608 353.582 82.6925 351.552C78.777 349.523 58.3725 339.191 54.9555 339.191C51.5386 339.191 48.6202 340.126 48 343.57L52.4627 347.075L53.0342 348.871L60.6707 352.893L62.0205 355.427L81.4765 365.931C81.4765 365.931 101.881 376.411 105.286 377.001C108.691 377.591 125.69 379.031 132.962 385.291L162.146 373.163C162.146 373.163 153.719 361.06 147.226 358.071C141.437 355.415 131.722 355.415 124.924 358.231L110.089 358.736Z" fill="#FFBF9D"/>
<path d="M129.618 378.551C129.618 378.551 166.767 460.493 172.749 476.951C172.749 476.951 214.276 470.038 215.699 446.73L162.195 372.93L129.618 378.551Z" fill="#FFBF9D"/>
<path d="M95.12 360.593C95.12 360.593 94.9741 360.593 94.7187 360.593C94.3388 360.554 93.9639 360.476 93.6 360.359C92.2682 359.949 90.9744 359.422 89.7331 358.785C88.1523 358.01 86.3162 356.989 84.2976 355.845C83.2883 355.279 82.2304 354.677 81.1238 354.099C80.0173 353.52 78.8134 353.016 77.5853 352.475C75.3113 351.433 72.9616 350.57 70.5568 349.892C68.3558 349.338 66.24 348.92 64.647 349.461C64.0292 349.712 63.4686 350.087 63.0001 350.566C62.5316 351.044 62.165 351.614 61.9232 352.241C61.7436 352.72 61.5365 353.189 61.303 353.643C61.303 353.643 61.303 353.496 61.3638 353.25C61.4451 352.873 61.5549 352.503 61.6922 352.143C61.907 351.569 62.1974 351.027 62.5555 350.532C63.0287 349.854 63.6884 349.332 64.4525 349.031C65.3951 348.711 66.3967 348.611 67.383 348.736C68.4861 348.846 69.5795 349.039 70.6541 349.314C73.1101 349.969 75.5095 350.824 77.8285 351.872C79.0445 352.413 80.2605 352.918 81.3914 353.52C82.5222 354.123 83.568 354.75 84.5773 355.329C86.5837 356.497 88.3834 357.555 89.9277 358.367C91.1243 359.028 92.3633 359.607 93.6365 360.101C94.585 360.458 95.12 360.531 95.12 360.593Z" fill="#FF9A6C"/>
<path d="M72.7213 348.81C71.5765 348.576 70.468 348.187 69.4259 347.653C66.9179 346.456 64.3392 345.417 61.7043 344.541C60.2626 344.128 58.7559 343.999 57.2659 344.16C56.6714 344.178 56.0868 344.319 55.5474 344.572C55.0081 344.826 54.5254 345.188 54.1286 345.636C53.6531 346.303 53.3405 347.074 53.2166 347.887C53.2056 348.202 53.144 348.514 53.0342 348.81C52.9774 348.496 52.9774 348.175 53.0342 347.862C53.0797 346.985 53.3568 346.135 53.8368 345.402C54.209 344.89 54.6913 344.469 55.2474 344.172C55.8834 343.866 56.5658 343.671 57.2659 343.594C58.8343 343.395 60.4264 343.516 61.9475 343.951C64.6198 344.818 67.2084 345.93 69.6813 347.272C70.7211 347.729 71.7359 348.242 72.7213 348.81Z" fill="#FF9A6C"/>
<path d="M131.332 356.411C131.332 356.411 131.004 356.608 130.384 356.829C129.495 357.154 128.59 357.433 127.672 357.665C124.654 358.46 121.56 358.926 118.443 359.055C115.327 359.191 112.206 359.002 109.128 358.49C107.912 358.281 107.012 358.071 106.368 357.887C106.023 357.834 105.69 357.722 105.383 357.555C105.383 357.456 106.842 357.739 109.201 358.035C112.258 358.417 115.341 358.545 118.419 358.416C121.498 358.255 124.56 357.844 127.575 357.186C129.825 356.743 131.247 356.325 131.332 356.411Z" fill="#FF9A6C"/>
<path d="M477.212 307.764L423.172 296.448L409.796 286.301L338.417 300.225C337.274 302.34 325.71 318.675 325.71 318.675L297.596 328.33C285.647 331.506 274.982 338.388 267.099 348.01C259.603 357.374 253.461 367.769 248.859 378.883C236.212 408.907 217.96 443.593 217.96 443.593L206.518 424.947L158.291 447.923C158.291 447.923 186.539 505.524 195.89 513.753C206.287 522.891 230.193 523.949 246.719 506.901C256.678 496.619 285.46 455.979 291.455 445.807L300.356 488.341L308.54 536.889L295.31 570.308H488.411L480.422 538.722C480.422 538.722 488.289 456.398 490.466 441.072C495.585 404.922 477.212 307.764 477.212 307.764Z" fill="#5ED8FF"/>
<path d="M477.211 307.764C477.211 307.764 515.88 318.736 524.392 357.616C529.548 381.171 547.059 448.316 553.224 503.593C556.872 536.458 556.774 566.827 556.872 570.308H497.531L472.384 318.736L477.211 307.764Z" fill="#5ED8FF"/>
<path d="M378.035 341.147C378.035 341.147 378.035 341.294 377.876 341.553L377.329 342.684C376.843 343.68 376.113 345.144 375.323 347.001C373.608 350.691 371.59 356.165 368.331 362.278L368.173 362.585L367.905 362.352C363.892 358.895 359.539 354.738 355.04 350.249C347.075 342.254 340.095 334.812 334.94 329.535L328.799 323.299L327.108 321.614C326.903 321.428 326.716 321.222 326.549 320.999C326.784 321.149 327 321.327 327.194 321.528L328.945 323.127C330.452 324.529 332.593 326.608 335.231 329.216C340.472 334.419 347.513 341.811 355.453 349.793C359.953 354.283 364.282 358.404 368.246 361.921L367.808 361.995C371.091 355.968 373.183 350.519 374.982 346.854C375.87 344.997 376.612 343.57 377.147 342.598C377.39 342.167 377.597 341.799 377.767 341.516C377.843 341.383 377.933 341.26 378.035 341.147Z" fill="black"/>
<path d="M423.926 297.838C423.923 298.129 423.886 298.417 423.817 298.699C423.695 299.314 423.549 300.126 423.367 301.159C422.929 303.275 422.151 306.325 421.154 310.04C419.05 317.42 415.645 327.617 411.426 338.625C409.201 344.455 407.012 349.966 404.969 354.849L404.811 355.23L404.507 354.96C398.998 350.04 394.061 346.165 390.717 343.287C389.039 341.848 387.726 340.692 386.838 339.88L385.853 338.945C385.622 338.723 385.513 338.613 385.525 338.6C385.665 338.674 385.796 338.765 385.914 338.871L386.96 339.744L390.936 343.016C394.353 345.821 399.327 349.621 404.896 354.517L404.434 354.627C406.44 349.707 408.617 344.222 410.83 338.404C415.001 327.334 418.467 317.309 420.668 309.917C421.762 306.227 422.564 303.201 423.1 301.098C423.331 300.102 423.525 299.302 423.671 298.638C423.736 298.365 423.822 298.098 423.926 297.838Z" fill="black"/>
<path d="M298.836 482.892C298.786 482.808 298.749 482.717 298.727 482.621L298.472 481.785C298.253 480.965 297.949 479.882 297.56 478.538C297.146 477.135 296.745 475.401 296.259 473.384C295.772 471.367 295.249 469.054 294.726 466.496C292.036 453.151 290.144 439.654 289.06 426.078C287.686 410.174 287.382 395.722 287.455 385.279C287.455 380.052 287.588 375.82 287.734 372.905C287.807 371.478 287.856 370.359 287.892 369.535C287.892 369.191 287.893 368.895 287.953 368.662C287.941 368.564 287.941 368.465 287.953 368.367C287.963 368.469 287.963 368.572 287.953 368.674V369.547C287.953 370.371 287.953 371.491 287.953 372.905C287.953 375.833 287.856 380.052 287.88 385.279C287.88 395.709 288.294 410.15 289.668 426.017C290.762 439.572 292.588 453.057 295.14 466.41C295.638 468.968 296.1 471.33 296.575 473.298C297.049 475.266 297.402 477.074 297.791 478.476L298.593 481.748L298.776 482.597C298.836 482.793 298.849 482.892 298.836 482.892Z" fill="black"/>
<path d="M480.422 350.888C480.494 350.994 480.551 351.11 480.592 351.233C480.701 351.491 480.847 351.823 481.018 352.241C481.407 353.176 481.93 354.492 482.611 356.153C482.951 357.014 483.352 357.948 483.741 358.994L484.897 362.438C485.31 363.668 485.748 365.009 486.222 366.411C486.696 367.813 487.012 369.351 487.438 370.937C491.086 383.594 492.91 401.909 491.864 421.945C490.819 441.982 488.484 460.075 487 473.064C486.259 479.559 485.651 484.835 485.225 488.525C485.018 490.309 484.848 491.723 484.726 492.72L484.58 493.814C484.572 493.94 484.547 494.064 484.508 494.183C484.491 494.061 484.491 493.937 484.508 493.814L484.593 492.707C484.69 491.699 484.824 490.247 484.982 488.501C485.322 484.811 485.857 479.546 486.55 473.015C487.876 459.952 490.113 441.921 491.183 421.921C492.253 401.921 490.454 383.705 486.964 371.048L485.748 366.522L484.532 362.561C484.143 361.331 483.778 360.162 483.437 359.105C483.097 358.047 482.684 357.1 482.355 356.239C481.723 354.554 481.237 353.237 480.872 352.29C480.726 351.86 480.604 351.528 480.507 351.257C480.46 351.139 480.431 351.015 480.422 350.888Z" fill="black"/>
<path d="M218.276 485.475C218.106 485.475 217.9 476.102 217.827 464.565C217.754 453.027 217.827 443.655 218.009 443.655C218.191 443.655 218.386 453.027 218.459 464.565C218.532 476.102 218.459 485.475 218.276 485.475Z" fill="black"/>
<path d="M393.745 542.239V541.723C393.745 541.354 393.843 540.862 393.916 540.222C394.086 538.869 394.317 536.938 394.621 534.453C394.779 533.223 394.949 531.809 395.144 530.296C395.338 528.783 395.484 527.11 395.667 525.376C396.019 521.809 396.506 517.762 396.883 513.26C397.065 511.022 397.247 508.66 397.454 506.213C397.661 503.765 397.758 501.206 397.916 498.562C398.281 493.273 398.439 487.603 398.646 481.65C398.913 469.731 398.877 456.619 398.269 442.88C397.661 429.141 396.42 416.078 395.046 404.233C394.28 398.317 393.612 392.696 392.748 387.468C392.347 384.848 391.994 382.315 391.532 379.892C391.07 377.468 390.693 375.144 390.316 372.918C389.574 368.477 388.723 364.492 388.03 360.974C387.677 359.215 387.361 357.579 387.057 356.054C386.753 354.529 386.425 353.188 386.145 351.958L384.929 346.288C384.808 345.661 384.698 345.169 384.625 344.812C384.552 344.455 384.54 344.295 384.54 344.295C384.602 344.455 384.651 344.62 384.686 344.787L385.063 346.251L386.413 351.909L387.373 355.993C387.69 357.493 388.03 359.117 388.407 360.913C389.125 364.418 390.012 368.403 390.778 372.844C391.184 375.066 391.589 377.391 391.994 379.818C392.432 382.278 392.785 384.738 393.21 387.395C394.086 392.634 394.779 398.255 395.569 404.172C396.968 416.029 398.159 429.104 398.84 442.855C399.521 456.607 399.473 469.743 399.169 481.674C398.938 487.64 398.767 493.31 398.378 498.599C398.208 501.243 398.086 503.802 397.88 506.262C397.673 508.722 397.454 511.071 397.26 513.322C396.919 517.824 396.396 521.932 396.044 525.425C395.837 527.209 395.642 528.869 395.472 530.345C395.302 531.821 395.071 533.248 394.888 534.503C394.536 536.963 394.256 538.906 394.074 540.247L393.843 541.747C393.824 541.914 393.792 542.078 393.745 542.239Z" fill="black"/>
<path d="M419.452 409.473H419.695L420.461 409.387L423.44 409.043L434.834 407.813L475.388 403.557H475.692V403.864C475.996 416.275 476.36 430.322 476.737 445.217V445.352L476.652 445.438L471.788 450.764L454.059 469.928L453.901 470.1L453.694 469.989L423.817 454.983L423.683 454.922V454.811C422.382 441.096 421.251 429.756 420.558 421.798C420.193 417.886 419.914 414.811 419.719 412.683C419.634 411.662 419.561 410.875 419.512 410.297C419.464 409.719 419.512 409.51 419.512 409.51C419.512 409.51 419.512 409.805 419.622 410.346C419.731 410.888 419.78 411.736 419.901 412.806C420.12 414.959 420.449 418.046 420.874 421.982C421.689 429.879 422.844 441.158 424.255 454.799L424.109 454.589L454.022 469.509L453.67 469.571L471.363 450.334L476.227 445.02L476.141 445.241C475.789 430.346 475.448 416.312 475.156 403.889L475.473 404.159L435.041 408.071L423.574 409.153L420.522 409.424L419.731 409.498L419.452 409.473Z" fill="black"/>
<path d="M475.764 418.132C475.075 418.326 474.372 418.462 473.661 418.538C472.299 418.76 470.329 419.042 467.885 419.362C463.021 419.99 456.223 420.715 448.745 421.441L429.581 423.335L423.78 423.95C423.077 424.065 422.365 424.118 421.652 424.11C422.341 423.916 423.045 423.781 423.756 423.704C425.118 423.483 427.088 423.2 429.532 422.88C434.396 422.253 441.194 421.527 448.684 420.801L467.836 418.907L473.636 418.292C474.34 418.178 475.052 418.124 475.764 418.132Z" fill="black"/>
<g opacity="0.3">
<path d="M487.511 466.508L489.554 491.637C494.065 470.112 501.155 446.976 500.048 425.008C498.941 403.04 496.899 382.019 484.666 362.13C489.984 377.105 492.423 392.969 491.852 408.87C490.733 434.577 487.511 466.508 487.511 466.508Z" fill="black"/>
</g>
<path d="M210.227 419.731C209.57 418.217 208.407 416.985 206.943 416.25C205.241 415.66 203.393 416.496 201.775 417.308L157.659 439.522C154.753 440.986 151.579 442.72 150.509 445.795C149.11 449.731 151.725 453.888 154.157 457.271C158.218 462.917 163.082 469.067 169.965 469.866L207.916 443.544C212.549 442.855 215.431 437.628 215.212 432.892C214.993 428.157 212.586 423.839 210.227 419.731Z" fill="#5ED8FF"/>
<path d="M215.018 435.82C214.905 435.978 214.775 436.123 214.628 436.25L213.412 437.394C212.367 438.378 210.822 439.768 208.889 441.441C205.01 444.799 199.501 449.264 193.081 453.815C186.66 458.366 180.787 462.117 176.324 464.651C174.111 465.942 172.3 466.951 171.035 467.615L169.576 468.366C169.235 468.538 169.053 468.612 169.041 468.587C169.181 468.453 169.341 468.341 169.515 468.255L170.913 467.394L176.093 464.257C180.459 461.601 186.405 457.788 192.753 453.249C199.1 448.71 204.645 444.319 208.561 441.06L213.218 437.16L214.434 436.115C214.847 435.918 215.005 435.795 215.018 435.82Z" fill="black"/>
<g opacity="0.3">
<path d="M423.355 300.655C418.163 318.096 410.891 337.826 404.75 354.775C399.521 350.286 392.201 344.345 386.96 339.843C391.471 348.894 396.886 357.455 403.121 365.39C403.85 366.312 404.823 367.321 405.954 367.1C407.085 366.878 407.596 365.697 407.985 364.64L417.555 339.019C422.029 327.038 426.346 313.066 423.355 300.655Z" fill="black"/>
</g>
<path d="M341.275 110.903C357.083 106.303 371.869 110.903 386.449 118.553C401.029 126.204 412.788 138.836 420.4 153.535C428.426 169.02 431.976 187.064 429.07 204.297C426.164 221.529 416.533 237.765 402.111 247.347C382.4 260.483 355.235 259.794 334.94 247.63C314.644 235.465 301.281 213.042 297.742 189.438C295.31 173.178 297.28 156.032 304.783 141.468C312.285 126.905 325.552 115.097 341.263 110.891" fill="#263238"/>
<path d="M393.174 160.952C390.122 155.011 390.255 147.963 388.589 141.468C384.941 127.188 372.052 116.868 358.044 112.748C345.02 108.898 329.954 111.788 315.484 118.406C305.585 122.945 296.575 129.906 290.665 139.131C286.8 145.315 284.452 152.343 283.817 159.631C283.183 166.918 284.28 174.254 287.017 181.025L359.235 161.813C366.75 166.733 374.447 171.812 383.142 174.113C385.671 174.904 388.359 175.027 390.949 174.469C392.234 174.162 393.404 173.487 394.32 172.525C395.237 171.563 395.86 170.355 396.117 169.045C396.421 166.118 394.499 163.547 393.174 160.952Z" fill="#263238"/>
<path d="M410.404 290.483L391.763 157.864C390.936 151.591 388.115 145.195 381.877 145.49L316.213 139.094C295.638 140.054 285.983 167.384 287.807 188.085C289.838 211.136 293.206 239.192 298.447 255.822C308.99 289.241 335.608 289.585 335.608 289.585C335.608 289.585 337.226 296.227 339.256 308.65L381.816 337.284L410.404 290.483Z" fill="#FFBF9D"/>
<path d="M303.676 213.313C303.84 214.46 304.44 215.497 305.348 216.202C306.257 216.908 307.403 217.226 308.54 217.089C309.099 217.049 309.645 216.896 310.145 216.639C310.645 216.382 311.089 216.026 311.45 215.593C311.812 215.159 312.084 214.657 312.25 214.115C312.417 213.574 312.474 213.004 312.419 212.439C312.253 211.293 311.653 210.257 310.745 209.55C309.837 208.843 308.693 208.521 307.555 208.651C306.996 208.694 306.451 208.85 305.952 209.109C305.453 209.367 305.01 209.724 304.648 210.158C304.287 210.592 304.015 211.095 303.848 211.636C303.681 212.178 303.623 212.748 303.676 213.313Z" fill="#263238"/>
<path d="M296.015 201.689C296.635 202.181 299.554 199.229 304.235 198.503C308.917 197.778 312.687 199.635 313.112 198.971C313.319 198.676 312.614 197.741 310.96 196.855C308.722 195.757 306.206 195.379 303.749 195.773C301.316 196.138 299.062 197.28 297.316 199.032C296.04 200.361 295.711 201.431 296.015 201.689Z" fill="#263238"/>
<path d="M346.881 206.203C347.041 207.352 347.64 208.392 348.549 209.101C349.458 209.809 350.605 210.128 351.745 209.992C352.304 209.952 352.85 209.799 353.349 209.542C353.849 209.285 354.293 208.929 354.655 208.496C355.016 208.062 355.289 207.56 355.455 207.018C355.621 206.477 355.679 205.907 355.624 205.342C355.463 204.193 354.864 203.153 353.955 202.445C353.046 201.737 351.899 201.417 350.76 201.554C350.201 201.596 349.656 201.75 349.157 202.007C348.658 202.265 348.215 202.62 347.854 203.053C347.492 203.487 347.22 203.988 347.053 204.529C346.886 205.07 346.827 205.639 346.881 206.203Z" fill="#263238"/>
<path d="M340.484 195.428C341.105 195.92 344.035 192.969 348.705 192.243C353.374 191.517 357.156 193.374 357.581 192.71C357.788 192.415 357.083 191.48 355.429 190.595C353.188 189.494 350.667 189.116 348.206 189.512C345.742 189.879 343.461 191.04 341.7 192.821C340.484 194.051 340.156 195.281 340.484 195.428Z" fill="#263238"/>
<path d="M330.416 233.153C330.416 232.882 327.412 232.821 322.621 232.944C321.405 232.944 320.189 232.944 319.91 232.144C319.63 231.345 319.8 229.942 320.165 228.454C320.846 225.363 321.564 222.12 322.317 218.725C325.236 204.875 327.181 193.571 326.61 193.461C326.038 193.35 323.242 204.531 320.311 218.307C319.618 221.714 318.949 224.973 318.329 228.085C318.086 229.524 317.539 231.197 318.426 232.907C318.659 233.309 318.982 233.65 319.368 233.904C319.754 234.158 320.194 234.318 320.652 234.37C321.337 234.464 322.033 234.464 322.719 234.37C327.498 233.854 330.44 233.411 330.416 233.153Z" fill="#263238"/>
<path d="M335.62 289.585C351.609 287.362 366.672 280.689 379.129 270.311C379.129 270.311 368.513 297.186 337.785 299.892L335.62 289.585Z" fill="#FF9A6C"/>
<path d="M334.113 244.247C334.83 242.978 335.855 241.915 337.091 241.157C338.327 240.4 339.733 239.973 341.178 239.918C342.227 239.856 343.278 240.011 344.267 240.373C345.255 240.734 346.161 241.295 346.929 242.021C347.673 242.714 348.188 243.621 348.406 244.62C348.623 245.618 348.532 246.66 348.145 247.605C347.16 249.585 344.582 250.409 342.26 250.065C339.933 249.617 337.718 248.705 335.742 247.384C335.154 247.078 334.629 246.661 334.198 246.154C333.986 245.92 333.847 245.629 333.8 245.315C333.752 245.002 333.798 244.682 333.93 244.395" fill="#FF9A6C"/>
<path d="M344.668 234.296C343.889 234.37 344.668 239.512 340.861 243.817C337.055 248.122 331.595 248.405 331.656 249.118C331.656 249.462 333.018 249.93 335.304 249.647C338.284 249.229 341.023 247.761 343.038 245.502C344.972 243.337 345.997 240.496 345.896 237.581C345.762 235.403 345.008 234.223 344.668 234.296Z" fill="#263238"/>
<path d="M339.147 181.308C339.804 182.538 344.376 181.197 349.957 181.013C355.539 180.828 360.208 181.665 360.755 180.398C360.998 179.795 360.05 178.713 358.068 177.741C355.452 176.585 352.61 176.047 349.757 176.166C346.905 176.286 344.116 177.06 341.603 178.43C339.718 179.561 338.855 180.73 339.147 181.308Z" fill="#263238"/>
<path d="M294.276 180.816C295.261 181.763 298.314 180.152 302.18 179.5C306.047 178.848 309.476 179.119 310.011 177.876C310.267 177.274 309.586 176.29 308.005 175.49C305.897 174.572 303.567 174.306 301.31 174.727C299.052 175.147 296.969 176.234 295.322 177.852C294.094 179.168 293.814 180.349 294.276 180.816Z" fill="#263238"/>
<path d="M403.802 149.599C394.949 130.608 362.92 107.028 342.588 111.247L312.444 135.552C314.254 141.067 317.503 145.985 321.848 149.787C326.193 153.589 331.472 156.133 337.128 157.151C343.148 158.16 350.2 157.704 354.31 162.28C358.42 166.856 357.436 174.728 361.412 179.586C366.92 186.327 379.275 184.309 383.725 191.812C385.683 195.084 385.452 199.34 387.446 202.587C390.122 206.904 402.391 211.197 406.902 209.008C411.414 206.818 410.392 198.651 411.377 194.137C413.068 186.45 411.462 182.796 410.052 178.811C406.756 169.365 408.033 158.652 403.802 149.599Z" fill="#263238"/>
<path d="M393.441 214.961C393.064 212.402 395.071 205.945 397.503 205.121C403.996 203.054 416.071 201.738 418.758 218.811C422.406 242.181 398.524 241.061 398.366 240.397C398.208 239.733 394.755 223.743 393.441 214.961Z" fill="#FFBF9D"/>
<path d="M404.021 230.434C404.118 230.336 404.47 230.656 405.237 230.852C406.257 231.119 407.34 230.969 408.252 230.434C410.538 229.143 411.973 224.899 411.426 220.668C411.168 218.66 410.47 216.735 409.383 215.035C409.053 214.34 408.561 213.737 407.948 213.278C407.336 212.819 406.622 212.519 405.869 212.402C405.388 212.352 404.905 212.475 404.504 212.749C404.104 213.024 403.812 213.432 403.68 213.903C403.473 214.604 403.68 215.047 403.571 215.133C403.461 215.219 403.023 214.826 403.048 213.829C403.088 213.233 403.328 212.669 403.729 212.23C404.285 211.638 405.05 211.293 405.857 211.271C407.656 211.111 409.505 212.501 410.623 214.211C411.926 216.075 412.76 218.232 413.055 220.496C413.651 225.219 411.961 230.004 408.775 231.566C408.186 231.849 407.542 231.996 406.89 231.996C406.238 231.996 405.594 231.849 405.005 231.566C404.154 230.951 403.948 230.483 404.021 230.434Z" fill="#FF9A6C"/>
<path d="M318.378 127.692C317.32 137.532 304.345 151.37 298.922 159.525C288.5 175.084 286.652 180.066 290.324 211.751C283.418 201.455 277.873 191.222 276.948 178.811C276.024 166.4 279.113 153.522 286.604 143.658C294.094 133.793 306.145 127.299 318.438 127.668" fill="#263238"/>
<path d="M373.475 94.3225C378.339 88.8982 385.367 85.3681 392.663 83.5231C403.06 80.8909 414.478 81.6043 423.939 86.1799C433.399 90.7555 440.719 99.3409 442.628 109.181C443.567 114.236 443.126 119.454 441.352 124.273C439.577 129.093 436.538 133.333 432.56 136.536C437.97 141.841 444.564 145.748 451.785 147.926C449.815 150.915 446.179 152.661 442.507 153.289C438.815 153.756 435.078 153.731 431.393 153.215C433.909 157.017 437.673 159.797 442.02 161.062C436.036 162.46 429.795 162.252 423.914 160.46C418.163 158.696 412.658 156.195 407.535 153.018C389.745 142.575 379.932 133.424 367.917 117.348C366.349 110.411 368.574 99.7591 373.475 94.3225Z" fill="#263238"/>
<path d="M411.827 143.621C398.767 124.322 382.145 114.003 367.103 110.792L411.827 143.621Z" fill="#263238"/>
<path d="M367.103 110.792C367.792 111.071 368.504 111.289 369.231 111.444C370.605 111.838 372.587 112.44 374.97 113.363C381.175 115.801 387.009 119.114 392.298 123.203C397.588 127.282 402.409 131.948 406.671 137.114C408.276 139.119 409.578 140.804 410.417 141.911C410.834 142.539 411.306 143.127 411.827 143.67C411.475 142.997 411.069 142.356 410.611 141.751C409.833 140.521 408.593 138.861 407.024 136.831C402.869 131.51 398.083 126.726 392.772 122.588C387.42 118.458 381.474 115.181 375.14 112.871C373.23 112.183 371.281 111.613 369.304 111.161C368.581 110.979 367.845 110.856 367.103 110.792Z" fill="#455A64"/>
<path d="M427.392 160.066L427.1 160.164L426.249 160.509C425.519 160.829 424.425 161.247 422.99 161.739C418.935 163.112 414.729 163.98 410.465 164.322C404.145 164.798 397.789 164.384 391.581 163.092C383.977 161.476 376.542 159.132 369.377 156.093C361.716 152.932 354.493 149.685 348.06 146.499C342.347 143.703 336.847 140.479 331.608 136.856C328.085 134.402 324.759 131.671 321.661 128.689C320.542 127.643 319.74 126.77 319.229 126.229L318.584 125.577C318.438 125.442 318.365 125.368 318.353 125.38C318.341 125.392 318.353 125.466 318.536 125.626L319.132 126.327C319.654 126.942 320.433 127.84 321.564 128.922C324.611 131.992 327.91 134.794 331.425 137.299C336.647 141.009 342.148 144.299 347.878 147.139C354.323 150.374 361.533 153.645 369.206 156.819C376.417 159.867 383.902 162.202 391.557 163.793C397.826 165.059 404.242 165.415 410.611 164.851C414.869 164.457 419.06 163.523 423.087 162.071C424.51 161.517 425.592 161.062 426.31 160.693L427.125 160.287C427.307 160.128 427.404 160.078 427.392 160.066Z" fill="#455A64"/>
<path d="M358.493 275.895L356.292 271.541C356.451 271.455 371.724 263.534 377.597 258.54C391.435 246.781 404.154 227.999 404.288 227.79L408.301 230.557C407.766 231.357 395.083 250.09 380.722 262.291C374.399 267.629 359.138 275.563 358.493 275.895Z" fill="#455A64"/>
<path d="M369.863 262.304C369.863 262.304 348.996 271.725 348.996 273.816C348.996 275.907 352.304 280.089 354.785 279.88C357.265 279.671 364.44 275.588 365.729 273.915C367.018 272.242 369.304 267.937 371.809 265.846L369.863 262.304Z" fill="#263238"/>
<path d="M408.131 198.971L403.267 198.737C403.443 184.55 401.027 170.451 396.141 157.151C385.586 129.648 365.291 114.888 335.839 113.264C333.16 113.146 330.476 113.331 327.838 113.818L329.966 111.776C330.997 110.792 332.196 110.004 333.505 109.451C335.298 108.693 337.247 108.389 339.183 108.566C376.369 111.825 393.174 135.737 400.725 155.515C405.869 169.401 408.382 184.144 408.131 198.971Z" fill="#455A64"/>
<path d="M405.699 243.706C414.207 243.706 421.105 233.672 421.105 221.295C421.105 208.918 414.207 198.885 405.699 198.885C397.19 198.885 390.292 208.918 390.292 221.295C390.292 233.672 397.19 243.706 405.699 243.706Z" fill="#455A64"/>
<path d="M421.105 221.295C421.091 221.193 421.091 221.09 421.105 220.988C421.105 220.742 421.105 220.447 421.032 220.078C420.978 218.916 420.86 217.758 420.68 216.609C420.051 212.372 418.42 208.35 415.925 204.887C415.085 203.768 414.113 202.756 413.031 201.874C411.853 200.935 410.524 200.207 409.103 199.721C407.582 199.223 405.972 199.067 404.385 199.266C402.707 199.521 401.1 200.129 399.667 201.05C396.632 203.185 394.288 206.181 392.931 209.66C391.412 213.364 390.63 217.335 390.63 221.345C390.63 225.355 391.412 229.325 392.931 233.03C394.287 236.509 396.631 239.505 399.667 241.64C401.1 242.561 402.707 243.168 404.385 243.423C405.972 243.616 407.581 243.461 409.103 242.968C410.524 242.482 411.853 241.754 413.031 240.815C414.11 239.93 415.082 238.919 415.925 237.802C418.42 234.339 420.051 230.318 420.68 226.08C420.86 224.931 420.977 223.773 421.032 222.611C421.032 222.242 421.032 221.947 421.105 221.701C421.089 221.599 421.089 221.496 421.105 221.394C421.124 221.495 421.124 221.6 421.105 221.701V222.611C421.092 223.784 421.011 224.954 420.862 226.117C420.318 230.43 418.722 234.539 416.217 238.073C415.365 239.231 414.377 240.28 413.274 241.197C412.058 242.19 410.68 242.96 409.201 243.472C407.607 244.002 405.918 244.174 404.252 243.977C402.492 243.721 400.805 243.093 399.302 242.132C396.156 239.966 393.721 236.9 392.31 233.325C390.745 229.546 389.939 225.491 389.939 221.394C389.939 217.297 390.745 213.241 392.31 209.463C393.721 205.888 396.156 202.821 399.302 200.656C400.805 199.695 402.492 199.066 404.252 198.811C405.918 198.614 407.607 198.786 409.201 199.315C410.68 199.827 412.058 200.597 413.274 201.591C414.38 202.504 415.369 203.554 416.217 204.715C418.725 208.247 420.322 212.356 420.862 216.671C421.011 217.829 421.092 218.996 421.105 220.164V221.086C421.113 221.156 421.113 221.226 421.105 221.295Z" fill="#263238"/>
<path d="M408.07 234.309C413.489 234.309 417.883 227.921 417.883 220.041C417.883 212.161 413.489 205.773 408.07 205.773C402.65 205.773 398.257 212.161 398.257 220.041C398.257 227.921 402.65 234.309 408.07 234.309Z" fill="#455A64"/>
<path d="M417.883 220.041C417.81 220.041 417.883 218.958 417.53 217.052C417.123 214.379 416.08 211.846 414.49 209.672C413.409 208.181 411.909 207.053 410.186 206.437C409.229 206.125 408.216 206.029 407.219 206.154C406.167 206.313 405.16 206.694 404.264 207.273C402.355 208.618 400.88 210.5 400.02 212.685C399.058 215.024 398.566 217.533 398.573 220.065C398.561 222.599 399.053 225.108 400.02 227.445C400.88 229.631 402.355 231.513 404.264 232.857C405.16 233.437 406.167 233.818 407.219 233.977C408.216 234.102 409.229 234.005 410.186 233.694C411.909 233.078 413.409 231.95 414.49 230.459C416.08 228.285 417.123 225.752 417.53 223.079C417.834 221.172 417.81 220.09 417.883 220.102C417.899 220.36 417.899 220.619 417.883 220.877C417.881 221.626 417.832 222.373 417.737 223.116C417.414 225.875 416.406 228.507 414.806 230.766C413.692 232.36 412.122 233.571 410.307 234.235C409.284 234.587 408.195 234.705 407.121 234.579C405.982 234.4 404.892 233.981 403.923 233.349C401.902 231.962 400.335 229.996 399.424 227.704C398.421 225.283 397.904 222.684 397.904 220.059C397.904 217.434 398.421 214.836 399.424 212.415C400.335 210.122 401.902 208.157 403.923 206.769C404.889 206.139 405.974 205.72 407.109 205.539C408.187 205.414 409.279 205.532 410.307 205.883C412.122 206.548 413.692 207.758 414.806 209.352C416.406 211.611 417.414 214.243 417.737 217.003C417.832 217.745 417.881 218.493 417.883 219.241C417.899 219.508 417.899 219.775 417.883 220.041Z" fill="#263238"/>
<path d="M408.751 230.299C412.646 230.299 415.804 225.706 415.804 220.041C415.804 214.375 412.646 209.783 408.751 209.783C404.856 209.783 401.698 214.375 401.698 220.041C401.698 225.706 404.856 230.299 408.751 230.299Z" fill="#455A64"/>
<path d="M415.804 220.041C415.743 220.041 415.743 219.266 415.524 217.901C415.211 215.981 414.452 214.165 413.311 212.599C412.542 211.538 411.474 210.736 410.246 210.299C409.547 210.073 408.807 210.01 408.08 210.114C407.354 210.219 406.66 210.488 406.051 210.902C403.412 212.661 402.014 216.351 402.002 220.028C401.99 223.706 403.412 227.408 406.051 229.167C406.66 229.581 407.354 229.851 408.08 229.955C408.807 230.059 409.547 229.996 410.246 229.77C411.474 229.333 412.542 228.531 413.311 227.47C414.452 225.905 415.211 224.088 415.524 222.169C415.743 220.803 415.743 220.028 415.804 220.041C415.833 220.224 415.833 220.411 415.804 220.594C415.81 221.133 415.781 221.671 415.718 222.206C415.5 224.205 414.78 226.114 413.627 227.753C412.806 228.887 411.666 229.744 410.356 230.213C409.609 230.467 408.817 230.555 408.033 230.471C407.203 230.355 406.408 230.062 405.699 229.61C404.227 228.602 403.087 227.171 402.428 225.502C401.696 223.751 401.319 221.868 401.319 219.967C401.319 218.066 401.696 216.183 402.428 214.432C403.087 212.763 404.227 211.332 405.699 210.324C406.408 209.872 407.203 209.579 408.033 209.463C408.817 209.379 409.609 209.467 410.356 209.721C411.666 210.19 412.806 211.047 413.627 212.181C414.78 213.82 415.5 215.729 415.718 217.728C415.781 218.263 415.81 218.801 415.804 219.34C415.847 219.571 415.847 219.809 415.804 220.041Z" fill="#263238"/>
</g>
<defs>
<filter id="filter0_d_3_207" x="-4" y="0.5" width="616" height="623" filterUnits="userSpaceOnUse" color-interpolation-filters="sRGB">
<feFlood flood-opacity="0" result="BackgroundImageFix"/>
<feColorMatrix in="SourceAlpha" type="matrix" values="0 0 0 0 0 0 0 0 0 0 0 0 0 0 0 0 0 0 127 0" result="hardAlpha"/>
<feOffset dy="4"/>
<feGaussianBlur stdDeviation="2"/>
<feComposite in2="hardAlpha" operator="out"/>
<feColorMatrix type="matrix" values="0 0 0 0 0 0 0 0 0 0 0 0 0 0 0 0 0 0 0.25 0"/>
<feBlend mode="normal" in2="BackgroundImageFix" result="effect1_dropShadow_3_207"/>
<feBlend mode="normal" in="SourceGraphic" in2="effect1_dropShadow_3_207" result="shape"/>
</filter>
</defs>
</svg>
